# xmcd CD database file
#
# Track frame offsets:
#	182
#	12310
#	28070
#	38835
#	50720
#	63357
#	76030
#	88622
#	104007
#	116465
#	131297
#	146185
#	159237
#
# Disc length: 2334 seconds
#
# Revision: 0
# Processed by: cddbd v1.5PL3 Copyright (c) Steve Scherf et al.
# Submitted via: CDex 1.51
#
DISCID=a6091c0d
DTITLE=Stan Coster - Songs Me Old Mates Wrote
DYEAR=1900
DGENRE=Country
TTITLE0=Songs Me Old Mates Wrote
TTITLE1=Hobnail Express
TTITLE2=Pick Up Man
TTITLE3=Black Man Jacky, Jacky
TTITLE4=Old Boko and Me
TTITLE5=You'll Do Me Mate
TTITLE6=Travelling This Big Country
TTITLE7=Where the Lazy Murray River Rolls Along
TTITLE8=BAnks of the Neebine
TTITLE9=Gumtrees by the Roadway
TTITLE10=Just Saddle Old Darkie
TTITLE11=Fair Enough
TTITLE12=Old Wallerawang
EXTD=
EXTT0=
EXTT1=
EXTT2=
EXTT3=
EXTT4=
EXTT5=
EXTT6=
EXTT7=
EXTT8=
EXTT9=
EXTT10=
EXTT11=
EXTT12=
PLAYORDER=
